#!OML:ASF F:\VICON\USERDATA\INSTALL\rory3\rory3.ASF
:FULLY-SPECIFIED
:DEGREES
88
root -0.13685810636629897 17.566564409885892 46.86224043872093 -2.3585070967605564 -7.071394933688127 -5.68693808315593
lfemur -21.71557851194602 -5.962409609819765 -9.689814311510084
ltibia 6.496807135404378
lfoot -2.756123939600575 2.933902182346583
ltoes -5.859734426695818
rfemur 10.474167233717594 7.970693050486246 26.035562569648164
rtibia 11.236136279304802
rfoot -1.4081104925517751 -11.591012164696915
rtoes -0.6119969658377511
lowerback nan 2.348343781511226 4.999698411476046
upperback 0.4716286510051717 5.045169663473535 1.903868768198823
thorax -4.358867807846097 2.429520066567054 -1.5708041466507012
lowerneck -16.685859926561054 -2.6446573847144883 -1.7285592872058708
upperneck 20.08138727415318 -3.5485917139279537 1.2570937676952854
head 9.035304009650881 -1.7537374435877382 0.24538351855449064
lclavicle -1.1336926397914924e-14 -8.060706696450869e-16
lhumerus -37.97278884055975 8.267333027053592 81.37330576045694
lradius 21.525626494792906
lwrist 1.9803957733779254
lhand -27.60667667845791 18.12064198611965
lfingers nan
lthumb -1.294520740048485 47.87822906511512
rclavicle -1.155409007393829e-14 -2.0149577957388395e-16
rhumerus -23.445489116734247 -9.874931098616866 -82.71748955013932
rradius 31.639305123525325
rwrist 0.509085817096997
rhand -18.932907912249917 nan
rfingers nan
rthumb 7.628599788561327 -4.534071505615971
89
root -0.08192485713521291 17.61856746721801 47.512314925717384 -3.1553226445503313 -6.148682049350012 -4.258594119549935
lfemur -20.28682029772081 -6.330423102994093 -12.075445407332872
ltibia 9.663984687537027
lfoot -1.7925248487595193 0.14686329484835015
ltoes -3.0913600372457846
rfemur 8.564241134322401 6.782957125961595 22.988598199071035
rtibia 17.89309044181191
rfoot 4.810975995843895 -10.012222415588058
rtoes -0.4153080788353205
lowerback nan 2.216292518787201 3.4438639149007564
upperback 0.6614533237836986 4.585606125497366 1.1379417855964498
thorax -4.150416803290896 2.2948981386907974 -1.1101295150456747
lowerneck -16.226004986895873 -2.710429283893375 -1.587827387554491
upperneck 20.017363750273727 -3.7137391175990393 1.3265054184310832
head 8.960197886192358 -1.8084618622423394 0.23382718884405457
lclavicle -3.2135729225017526e-14 -2.316366713977541e-14
lhumerus -37.398300551498025 9.730981818151879 80.17846566800687
lradius 19.690430908494104
lwrist -0.38883630607763475
lhand -23.484029473047734 32.22700351114586
lfingers nan
lthumb 2.742193824817168 61.93852133526372
rclavicle -3.260375233920578e-14 -2.293242436587603e-14
rhumerus -24.181337031372383 -12.478621561227154 -82.31034813760061
rradius 30.95641978297936
rwrist 1.1374658600070102
rhand -19.840515171994074 nan
rfingers nan
rthumb 6.752573568104204 -3.973562019174654
90
root -0.020457269540049394 17.66661041544666 48.19764811873451 -4.081265318664872 -5.280664388051809 -3.3367865428185635
lfemur -17.51037409287061 -6.291283902733953 -14.037750473895853
ltibia 11.326896549950895
lfoot -2.148227275442999 -0.2947575047972947
ltoes -2.22585078460965
rfemur 5.191731876301464 4.528391473001006 19.656363874044228
rtibia 26.02099415974086
rfoot 14.873795613048099 -8.213627984774202
rtoes 0.8715762820761794
lowerback nan 2.054566248541325 2.7496283162396784
upperback 0.9210846473118994 4.209835704986373 0.5244250748579176
thorax -3.950767447634913 2.1746063062322842 -0.9672084796713457
lowerneck -16.00358271987382 -2.9225843093015937 -2.0489940698119034
upperneck 20.18155678708413 -4.1477758041382335 1.980351927800819
head 9.017273641034008 -1.9227448022756786 0.47953650197094944
lclavicle 1.7978481970782733e-14 1.6539649824690003e-14
lhumerus -37.52480087596313 10.698176141793597 79.1663126955505
lradius 19.55791510407495
lwrist -2.1790213301617216
lhand -22.353762279808187 32.02702148058808
lfingers nan
lthumb 3.876777568641944 61.82645237143195
rclavicle 1.7742229814351602e-14 1.6697948212702397e-14
rhumerus -25.617908928320038 -14.716893411005893 -81.7439398826735
rradius 30.8664201716815
rwrist 1.4425219125099478
rhand -18.947825629506834 nan
rfingers nan
rthumb 7.625104433457791 -5.748359798415373
91
root 0.022295913947792345 17.711078519370904 47.81221249913605 -4.329624388392501 -6.1643587743473045 -3.015545271288824
lfemur -15.216179870824206 -5.693906476124019 -15.188979571716448
ltibia 12.294481932441528
lfoot -3.295522834028434 0.5684090017151866
ltoes -0.3854793808309749
rfemur -0.941322261287997 5.188022497046096 17.746074480233307
rtibia 36.29718752934376
rfoot 24.124928046540106 -8.61326305647751
rtoes 3.716645388454436
lowerback nan 2.416304867676511 2.455319393256472
upperback 0.903140744531274 4.44650732378796 0.1826552931317602
thorax -4.150727048451305 2.384649283511596 -0.9842403839942809
lowerneck -15.813239871620558 -2.8767292587203883 -2.0878531855783713
upperneck 20.167873509875434 -4.047667800691784 1.8448816121303824
head 8.99469023581847 -1.89026422992024 0.45388419206495234
lclavicle -6.07534807870731e-15 3.60804230344694e-14
lhumerus -37.43845255840152 9.226087570699306 79.75071882546531
lradius 20.676787074618193
lwrist -0.6137127706003316
lhand -21.89435319093399 32.19989805492855
lfingers nan
lthumb 4.314060771200447 62.042434990686786
rclavicle -6.095695061338974e-15 3.709478351460717e-14
rhumerus -27.0818889081364 -15.18638577402224 -81.4872776098608
rradius 30.763028793129152
rwrist 1.0893581472146847
rhand -18.23393360445443 nan
rfingers nan
rthumb 8.325902033315153 -5.470444430349978
92
root 0.05157947001076568 17.7511113215647 48.3187298847501 -4.284306956213964 -6.263992883526926 -1.8379449107714168
lfemur -13.343741437767443 -5.653577444772907 -17.198421843206127
ltibia 12.060934351211003
lfoot -5.14763305069416 1.5590468469384036
ltoes -3.702266550250134
rfemur -8.149765110950103 5.782908934258064 15.811018008387844
rtibia 47.53938866124981
rfoot 27.32957860594653 -12.048198311951007
rtoes 10.049875267764877
lowerback nan 2.3481309337340917 0.7309882561771777
upperback 0.6980483327120806 3.9782292279971814 -0.2108080732790969
thorax -4.607729314770487 2.210726314248939 -0.3298665975496128
lowerneck -16.101581603234386 -2.6066649947519185 -1.5246766871754722
upperneck 20.199212799228608 -3.6201058599313383 1.420688948009965
head 9.031871167013028 -1.7274818121104996 0.2902850845479543
lclavicle -2.170278511524036e-14 -1.6782965620670839e-15
lhumerus -37.42875293475057 6.888068641534447 80.91125679755396
lradius 22.49873870546225
lwrist 3.2206608855793837
lhand -27.884861944415974 22.523244631349208
lfingers nan
lthumb -1.5043924488343272 52.29104923397214
rclavicle -2.1282390411973126e-14 -4.416123569460797e-16
rhumerus -27.76862639181025 -14.211339449937693 -81.79698340100717
rradius 30.343842720648787
rwrist 2.023292354085524
rhand -18.0257981694866 nan
rfingers nan
rthumb 8.52815486268528 -6.203193802595278
